:SAMPLES-PER-SECOND 30
:FULLY-SPECIFIED
:DEGREES
59
root  -9.12354 32.7012 64.8465 -77.818 69.3327 -74.4853
RightUpLeg  -23.3873 -10.0033 -5.72897
RightLeg  20.284 -5.10417 -2.29813
RightFoot  5.66069 -4.61267 30.5084
RightToes  -5.82094e-011 -1.98785e-016 -5.10186e-018
Spine  34.5735 0.300209 -5.08553
Spine1  5.54577 -5.12987 13.0384
HEad  -3.73946 -47.916 26.3418
LeftShoulder1  3.05392 -8.76287 -18.3316
LeftArm  -21.0633 0.812153 -50.982
LeftForeArm  118.975 -81.0876 -59.4596
LeftHand  0.759752 8.29935 29.6148
RightShoulder  3.90731 7.2717 30.3446
RightArm  -3.98225 -9.68126 31.7758
RightForeArm  12.2244 53.9056 14.5309
RightHand  -2.99926 7.86543 -26.0822
LeftUpLeg  -41.1617 10.1522 14.3557
LeftLeg  78.8615 2.02223 14.2082
LeftFoot  -25.1505 -0.497066 -5.42409
LeftToes  -8.4584e-011 5.90861e-011 8.40072e-012
60
root  -8.96813 33.3288 63.9415 -66.2281 67.6322 -61.4634
RightUpLeg  -19.7389 -7.46165 -6.03167
RightLeg  14.3923 -4.49372 -1.83969
RightFoot  -1.10662 -2.94584 31.9712
RightToes  -5.82094e-011 -1.98785e-016 -5.10186e-018
Spine  33.9034 1.14824 -7.01926
Spine1  4.86232 -5.6469 15.5059
HEad  -1.14393 -46.6176 25.4599
LeftShoulder1  2.75047 -8.51122 -16.1552
LeftArm  -25.3958 -1.28379 -49.08
LeftForeArm  124.099 -81.4691 -64.1166
LeftHand  0.558382 7.65609 28.0108
RightShoulder  3.3924 6.30929 28.6448
RightArm  -6.50923 -13.0792 28.7081
RightForeArm  14.3233 56.7781 16.1022
RightHand  -2.30989 7.00741 -21.72
LeftUpLeg  -37.0935 12.7872 8.3814
LeftLeg  74.1842 0.791956 4.79553
LeftFoot  -21.8086 -0.431514 -5.63652
LeftToes  -8.4584e-011 5.90861e-011 8.40072e-012
61
root  -8.78043 33.7025 62.8988 -52.8446 63.9263 -47.5844
RightUpLeg  -18.6402 -7.40818 -5.57872
RightLeg  10.5791 -4.10459 -2.06968
RightFoot  -7.77582 -1.05643 31.2724
RightToes  -5.82094e-011 -1.98785e-016 -5.10186e-018
Spine  31.9542 1.43606 -7.68513
Spine1  4.22338 -5.36569 15.303
HEad  -0.180704 -44.5994 24.9127
LeftShoulder1  2.38847 -8.18235 -13.47
LeftArm  -30.7249 -1.38865 -47.5469
LeftForeArm  137.848 -82.1353 -78.9039
LeftHand  0.220204 6.33924 26.6405
RightShoulder  3.23036 6.08931 27.6987
RightArm  -9.70463 -14.3017 24.7843
RightForeArm  12.469 57.1897 16.5809
RightHand  -1.99783 7.01348 -18.871
LeftUpLeg  -32.867 14.8134 3.40117
LeftLeg  65.3769 1.15308 2.83224
LeftFoot  -15.5914 0.247005 1.20271
LeftToes  -8.4584e-011 5.90861e-011 8.40072e-012
62
root  -8.57242 33.8762 61.7757 -44.104 59.2035 -37.7373
RightUpLeg  -18.0063 -7.89508 -5.9646
RightLeg  10.9214 -8.823 -3.03376
RightFoot  -7.37537 -0.980899 26.9893
RightToes  -5.82094e-011 -1.98785e-016 -5.10186e-018
Spine  30.5872 1.17825 -8.20587
Spine1  3.896 -5.05049 13.8432
HEad  -0.804351 -42.0152 23.6485
LeftShoulder1  2.0347 -7.42038 -11.4488
LeftArm  -35.8599 -0.203495 -44.1966
LeftForeArm  159.163 -82.0076 -102.75
LeftHand  0.0463147 5.6053 25.7748
RightShoulder  3.01579 5.78698 26.4511
RightArm  -13.275 -12.5758 21.6404
RightForeArm  10.8209 56.2924 16.1205
RightHand  -1.98605 6.48626 -19.5766
LeftUpLeg  -27.8594 13.6023 0.398282
LeftLeg  57.9638 6.98781 12.5175
LeftFoot  -20.3197 1.06609 12.5872
LeftToes  -8.4584e-011 5.90861e-011 8.40072e-012
63
root  -8.51296 33.7502 60.6254 -38.2636 52.7332 -30.2351
RightUpLeg  -19.8306 -6.90669 -5.68684
RightLeg  20.7272 -9.23411 -3.8792
RightFoot  -4.81939 -1.27848 21.4304
RightToes  -5.82094e-011 -1.98785e-016 -5.10186e-018
Spine  30.1641 1.45973 -8.57345
Spine1  3.03383 -4.38192 13.6334
HEad  -1.96841 -38.4979 22.1916
LeftShoulder1  1.62189 -5.73119 -10.3069
LeftArm  -40.8611 2.22772 -40.1383
LeftForeArm  -179.447 -80.3045 -126.316
LeftHand  0.0888545 5.78986 25.9596
RightShoulder  3.02859 6.14177 25.3318
RightArm  -16.6465 -8.96835 18.2234
RightForeArm  12.2833 55.4081 15.4188
RightHand  -2.16119 6.08403 -21.7973
LeftUpLeg  -25.178 11.9948 -0.228347
LeftLeg  55.6837 12.6872 19.6399
LeftFoot  -22.1099 1.08644 10.0336
LeftToes  -8.4584e-011 5.90861e-011 8.40072e-012
64
root  -8.53125 33.8802 59.5775 -34.6961 48.4168 -24.7612
RightUpLeg  -20.8133 -6.25267 -6.18013
RightLeg  34.1057 -7.14509 -5.48912
RightFoot  -3.67139 -1.23854 18.0029
RightToes  -5.82094e-011 -1.98785e-016 -5.10186e-018
Spine  28.7373 2.51407 -11.7921
Spine1  4.47043 -4.8246 16.0982
HEad  -3.07854 -35.0337 21.7505
LeftShoulder1  1.35081 -4.0336 -10.6807
LeftArm  -45.4229 3.63522 -36.7172
LeftForeArm  -167.54 -78.2052 -138.888
LeftHand  0.0500905 5.60647 26.5633
RightShoulder  3.26391 6.91873 25.2432
RightArm  -19.2474 -4.1718 15.7326
RightForeArm  14.2026 53.0781 13.8956
RightHand  -2.87506 7.51977 -25.7887
LeftUpLeg  -23.3631 13.669 -1.97791
LeftLeg  53.2146 16.5237 22.6711
LeftFoot  -19.7493 0.886149 10.424
LeftToes  -8.4584e-011 5.90861e-011 8.40072e-012
